<svg data-v-d3f97b9e="" xmlns="http://www.w3.org/2000/svg" viewBox="0 0 435 112"><!----><!----><!----><g data-v-d3f97b9e="" id="b7f6c710-91f1-42d2-8601-ccc4b3f5a7df" fill="black" transform="matrix(4.548900604248047,0,0,4.548900604248047,126.86615753173828,12.363741874694824)"><path d="M11.09 5.71L11.90 13.01C11.91 13.17 11.96 13.23 12.11 13.23L12.80 13.23C12.96 13.23 13.02 13.16 13.01 13.01L11.83 3.37C11.82 3.28 11.80 3.25 11.70 3.25L11.62 3.25C11.56 3.25 11.52 3.26 11.45 3.37L6.97 11.84L2.49 3.37C2.42 3.26 2.38 3.25 2.32 3.25L2.24 3.25C2.14 3.25 2.13 3.28 2.11 3.37L0.94 13.01C0.91 13.16 0.98 13.23 1.13 13.23L1.82 13.23C1.99 13.23 2.02 13.17 2.04 13.01L2.87 5.73L6.65 13.19C6.75 13.33 6.80 13.41 6.92 13.41L7.03 13.41C7.14 13.41 7.21 13.33 7.28 13.19ZM17.57 11.68L17.56 11.68L15.19 6.33C15.11 6.15 15.05 6.10 14.91 6.10L14.18 6.10C14.03 6.10 14 6.16 14.07 6.33L17.00 12.87L15.67 15.86C15.58 16.03 15.62 16.09 15.78 16.09L16.49 16.09C16.63 16.09 16.70 16.04 16.79 15.86L21.03 6.33C21.11 6.16 21.07 6.10 20.92 6.10L20.20 6.10C20.06 6.10 19.99 6.15 19.91 6.33ZM28.28 12.53C27.36 12.53 26.53 12.18 25.91 11.75C25.75 11.62 25.68 11.69 25.61 11.83L25.41 12.18C25.33 12.33 25.33 12.40 25.45 12.49C26.49 13.17 27.59 13.38 28.34 13.38C30.14 13.38 31.21 12.46 31.21 11.17C31.21 9.81 29.86 9.37 28.48 9.17C27.20 8.99 26.50 8.85 26.50 8.08C26.50 7.31 27.08 6.80 28.25 6.80C29.16 6.80 29.69 7.01 30.45 7.48C30.62 7.59 30.69 7.52 30.76 7.38L30.94 7.04C31.01 6.92 31.04 6.83 30.87 6.73C29.89 6.13 28.92 5.95 28.20 5.95C26.54 5.95 25.51 6.80 25.51 8.13C25.51 9.60 26.84 9.93 28.22 10.11C29.50 10.29 30.20 10.61 30.20 11.23C30.20 11.94 29.64 12.53 28.28 12.53ZM37.25 13.05C37.38 12.98 37.39 12.92 37.35 12.78L37.27 12.33C37.21 12.14 37.17 12.12 36.99 12.22C36.64 12.40 36.41 12.43 36.02 12.43C34.90 12.43 34.41 11.83 34.41 10.19L34.41 6.97L36.95 6.97C37.11 6.97 37.16 6.92 37.16 6.75L37.16 6.33C37.16 6.15 37.10 6.10 36.95 6.10L34.41 6.10L34.41 4.66C34.41 4.49 34.37 4.44 34.20 4.44L33.59 4.44C33.42 4.44 33.38 4.49 33.38 4.66L33.38 6.10L32.69 6.10C32.52 6.10 32.47 6.15 32.47 6.33L32.47 6.75C32.47 6.92 32.52 6.97 32.69 6.97L33.38 6.97L33.38 10.28C33.38 12.22 34.06 13.38 35.91 13.38C36.09 13.38 36.69 13.38 37.25 13.05ZM44.24 13.01C44.31 13.17 44.37 13.23 44.48 13.23L44.83 13.23C44.98 13.23 45.04 13.17 45.04 13.01L45.04 9.80L45.04 6.33C45.04 6.16 44.98 6.10 44.83 6.10L44.20 6.10C44.04 6.10 43.99 6.16 43.99 6.33L43.99 9.86C43.99 11.26 43.20 12.43 41.99 12.43C40.85 12.43 40.01 11.62 40.01 9.95L40.01 6.33C40.01 6.16 39.96 6.10 39.80 6.10L39.17 6.10C39.02 6.10 38.96 6.16 38.96 6.33L38.96 10.23C38.96 12.47 40.24 13.38 41.73 13.38C43.11 13.38 43.83 12.31 44.13 11.75ZM52.92 7.59C52.75 7.20 51.98 5.95 50.33 5.95C48.37 5.95 47.10 7.62 47.10 9.66C47.10 11.69 48.37 13.38 50.33 13.38C51.98 13.38 52.74 12.24 53.09 11.70L53.20 13.01C53.26 13.17 53.31 13.23 53.44 13.23L53.76 13.23C53.91 13.23 53.97 13.17 53.97 13.01L53.97 3.12C53.97 2.95 53.91 2.90 53.76 2.90L53.13 2.90C52.98 2.90 52.92 2.95 52.92 3.12ZM50.54 12.45C49.07 12.45 48.15 11.21 48.15 9.66C48.15 8.22 49.07 6.90 50.54 6.90C52.00 6.90 52.93 8.27 52.93 9.67C52.93 11.06 52.00 12.45 50.54 12.45ZM56.95 13.01C56.95 13.17 56.99 13.23 57.16 13.23L57.78 13.23C57.95 13.23 58.00 13.17 58.00 13.01L58.00 6.33C58.00 6.16 57.96 6.10 57.78 6.10L57.16 6.10C56.99 6.10 56.95 6.16 56.95 6.33ZM56.73 3.77C56.73 4.17 57.05 4.49 57.46 4.49C57.86 4.49 58.20 4.17 58.20 3.77C58.20 3.36 57.86 3.04 57.46 3.04C57.05 3.04 56.73 3.36 56.73 3.77ZM60.31 9.67C60.31 11.72 61.95 13.38 63.99 13.38C66.04 13.38 67.68 11.72 67.68 9.67C67.68 7.63 66.04 5.95 63.99 5.95C61.95 5.95 60.31 7.63 60.31 9.67ZM63.99 12.45C62.54 12.45 61.36 11.21 61.36 9.67C61.36 8.13 62.54 6.90 63.99 6.90C65.46 6.90 66.64 8.13 66.64 9.67C66.64 11.21 65.46 12.45 63.99 12.45Z"></path></g><!----><g data-v-d3f97b9e="" id="bc814cc2-730c-4b00-81c8-6feebcef0658" transform="matrix(1.1111111640930176,0,0,1.1111111640930176,0.4444417953491211,0.4444417953491211)" stroke="none" fill="black"><path d="M87.427 25H75.086L87.5 12.549 75.232 0H57.837l12.464 12.451L57.531 25H42.773l12.684-12.451L42.92 0H25.244l12.451 12.451L24.927 25H12.402l12.695-12.451L12.549 0H0v100h100V0H87.744L100 12.5 87.427 25zm.073 62.365h-75v-12.5h75v12.5zm0-24.865h-75V50h75v12.5z"></path></g><!----></svg>